<?xml version="1.0" encoding="utf-8"?>
<!-- Generator: Adobe Illustrator 25.0.1, SVG Export Plug-In . SVG Version: 6.00 Build 0)  -->
<svg version="1.1" id="图层_1" xmlns="http://www.w3.org/2000/svg" xmlns:xlink="http://www.w3.org/1999/xlink" x="0px" y="0px"
	 viewBox="0 0 400 300" style="enable-background:new 0 0 400 300;" xml:space="preserve">
<style type="text/css">
	.st0{fill:none;stroke:#000000;}
</style>
<line class="st0" x1="0" y1="30" x2="400" y2="30"/>
<line class="st0" x1="0" y1="60" x2="400" y2="60"/>
<line class="st0" x1="0" y1="90" x2="400" y2="90"/>
<line class="st0" x1="0" y1="120" x2="400" y2="120"/>
<line class="st0" x1="0" y1="150" x2="400" y2="150"/>
<line class="st0" x1="0" y1="180" x2="400" y2="180"/>
<line class="st0" x1="0" y1="210" x2="400" y2="210"/>
<line class="st0" x1="0" y1="240" x2="400" y2="240"/>
<line class="st0" x1="0" y1="270" x2="400" y2="270"/>
<line class="st0" x1="40" y1="0" x2="40" y2="300"/>
<line class="st0" x1="80" y1="0" x2="80" y2="300"/>
<line class="st0" x1="120" y1="0" x2="120" y2="300"/>
<line class="st0" x1="160" y1="0" x2="160" y2="300"/>
<line class="st0" x1="200" y1="0" x2="200" y2="300"/>
<line class="st0" x1="240" y1="0" x2="240" y2="300"/>
<line class="st0" x1="280" y1="0" x2="280" y2="300"/>
<line class="st0" x1="320" y1="0" x2="320" y2="300"/>
<line class="st0" x1="360" y1="0" x2="360" y2="300"/>
</svg>
